<svg id="Layer_1" data-name="Layer 1" xmlns="http://www.w3.org/2000/svg" viewBox="32 19.1 31 31">
    <defs>
        <style>.cls-2{fill:#777;}.cls-3{fill:#02e49b;}</style>
    </defs>
    <!-- Derived from https://github.com/neo-project/neo.org/blob/master/NeoWeb/wwwroot/images/dev/CoreDeveloper.svg -->
    <rect class="cls-2" x="46.51" y="24.75" width="1.79" height="7.3" />
    <rect class="cls-2" x="46.51" y="37.22" width="1.79" height="7.3" />
    <rect class="cls-2" x="35.78" y="30.71" width="1.79" height="7.75" />
    <rect class="cls-2" x="57.25" y="30.71" width="1.79" height="7.75" />
    <rect class="cls-2" x="41.08" y="34.17" width="1.79" height="7.3" transform="translate(30.22 93.09) rotate(-120)" />
    <rect class="cls-2" x="41.07" y="21.28" width="1.79" height="8.2" transform="translate(40.97 74.41) rotate(-120)" />
    <rect class="cls-2" x="51.67" y="21.12" width="1.79" height="8.2" transform="translate(4.44 58.14) rotate(-60)" />
    <rect class="cls-2" x="41.07" y="39.79" width="1.79" height="8.2" transform="translate(100.96 29.5) rotate(120)" />
    <rect class="cls-2" x="51.67" y="39.95" width="1.79" height="8.2" transform="translate(64.43 -23.5) rotate(60)" />
    <rect class="cls-2" x="51.93" y="34.04" width="1.79" height="7.3" transform="translate(-6.23 64.59) rotate(-60)" />
    <rect class="cls-2" x="41.08" y="27.87" width="1.79" height="7.3" transform="translate(90.27 10.92) rotate(120)" />
    <rect class="cls-2" x="51.93" y="28" width="1.79" height="7.3" transform="translate(53.82 -29.92) rotate(60)" />
    <path class="cls-3" d="M47.24,19.29,44.9,20.64a.37.37,0,0,0-.18.31v2.7a.37.37,0,0,0,.18.31l2.34,1.35a.38.38,0,0,0,.36,0L49.93,24a.37.37,0,0,0,.18-.31V21a.37.37,0,0,0-.18-.31L47.6,19.29A.38.38,0,0,0,47.24,19.29Z" />
    <path class="cls-3" d="M36.52,25.4l-2.33,1.35a.35.35,0,0,0-.18.31v2.69a.38.38,0,0,0,.18.32l2.33,1.34a.33.33,0,0,0,.36,0l2.33-1.34a.38.38,0,0,0,.18-.32V27.06a.35.35,0,0,0-.18-.31L36.88,25.4A.38.38,0,0,0,36.52,25.4Z" />
    <path class="cls-3" d="M36.44,37.87l-2.33,1.35a.35.35,0,0,0-.18.31v2.69a.38.38,0,0,0,.18.32l2.33,1.34a.33.33,0,0,0,.36,0l2.34-1.34a.38.38,0,0,0,.18-.32V39.53a.35.35,0,0,0-.18-.31L36.8,37.87A.38.38,0,0,0,36.44,37.87Z" />
    <path class="cls-3" d="M47.24,31.63,44.9,33a.35.35,0,0,0-.18.31V36a.38.38,0,0,0,.18.31l2.34,1.34a.33.33,0,0,0,.36,0l2.33-1.34a.38.38,0,0,0,.18-.31v-2.7a.35.35,0,0,0-.18-.31L47.6,31.63A.38.38,0,0,0,47.24,31.63Z" />
    <path class="cls-3" d="M58,25.4l-2.33,1.35a.35.35,0,0,0-.18.31v2.69a.38.38,0,0,0,.18.32L58,31.41a.33.33,0,0,0,.36,0l2.34-1.34a.38.38,0,0,0,.18-.32V27.06a.35.35,0,0,0-.18-.31L58.32,25.4A.38.38,0,0,0,58,25.4Z" />
    <path class="cls-3" d="M47.24,44,44.9,45.37a.35.35,0,0,0-.18.31v2.69a.35.35,0,0,0,.18.31L47.24,50a.38.38,0,0,0,.36,0l2.33-1.35a.35.35,0,0,0,.18-.31V45.68a.35.35,0,0,0-.18-.31L47.6,44A.38.38,0,0,0,47.24,44Z" />
    <path class="cls-3" d="M58.06,37.87l-2.33,1.35a.33.33,0,0,0-.18.31v2.69a.36.36,0,0,0,.18.32l2.33,1.34a.33.33,0,0,0,.36,0l2.33-1.34a.38.38,0,0,0,.18-.32V39.53a.35.35,0,0,0-.18-.31l-2.33-1.35A.38.38,0,0,0,58.06,37.87Z" />
</svg>